<?xml version="1.0" standalone="no"?>
<!DOCTYPE svg PUBLIC "-//W3C//DTD SVG 20010904//EN"
 "http://www.w3.org/TR/2001/REC-SVG-20010904/DTD/svg10.dtd">
<svg version="1.0" xmlns="http://www.w3.org/2000/svg"
 width="1200.000000pt" height="590.000000pt" viewBox="0 0 1200.000000 590.000000"
 preserveAspectRatio="xMidYMid meet">

<g transform="translate(0.000000,590.000000) scale(0.100000,-0.100000)"
fill="#000000" stroke="none">
<path d="M9000 5875 c-116 -22 -242 -89 -328 -175 -74 -74 -140 -185 -162
-271 l-12 -46 -116 -6 c-74 -4 -141 -13 -182 -26 -157 -49 -278 -170 -332
-330 -22 -65 -22 -78 -26 -698 -3 -565 -2 -635 13 -663 32 -61 113 -87 174
-56 59 31 56 -5 61 685 5 619 6 637 26 681 26 55 98 123 150 141 21 7 81 13
133 14 l93 0 22 -66 c37 -107 76 -169 161 -255 127 -128 264 -185 445 -185
181 0 318 57 445 185 85 86 124 148 160 255 l23 66 288 0 c272 0 292 -1 334
-21 55 -25 103 -72 133 -128 20 -38 22 -61 28 -281 7 -253 11 -280 61 -380 61
-124 153 -217 272 -275 121 -59 135 -60 658 -60 l478 0 0 118 0 119 -472 7
c-436 7 -475 9 -524 27 -72 27 -156 105 -191 177 -28 56 -28 60 -34 297 -7
266 -13 298 -74 400 -47 77 -86 118 -159 166 -115 76 -151 82 -498 87 l-306 4
-11 45 c-16 62 -65 158 -113 218 -143 182 -388 274 -618 230z m221 -225 c115
-22 210 -122 195 -206 -9 -45 -57 -99 -123 -136 -29 -16 -60 -43 -70 -58 l-16
-28 -179 165 c-170 158 -178 167 -162 184 25 27 94 58 166 74 78 17 120 18
189 5z m-356 -182 c66 -61 195 -185 287 -274 145 -142 171 -164 199 -164 25 0
42 -11 80 -50 26 -27 59 -52 74 -56 24 -6 25 -7 9 -25 -28 -31 -98 -52 -151
-46 -37 4 -54 12 -75 36 -15 17 -28 42 -28 55 0 26 -34 63 -44 47 -13 -20
-103 -31 -163 -20 -76 14 -125 41 -189 100 -92 87 -130 212 -100 329 l16 63
-40 43 c-45 49 -51 74 -17 74 14 0 64 -39 142 -112z"/>
<path d="M9140 5570 c-24 -24 -25 -43 -4 -64 18 -19 55 -21 72 -4 17 17 15 54
-4 72 -21 21 -40 20 -64 -4z"/>
<path d="M8992 5558 c-20 -20 -14 -66 9 -79 33 -17 69 3 69 39 0 33 -16 52
-45 52 -12 0 -26 -5 -33 -12z"/>
<path d="M9266 5495 c-21 -22 -20 -41 4 -65 25 -25 32 -25 61 -1 20 16 22 23
14 47 -12 34 -54 44 -79 19z"/>
<path d="M9010 5150 c-24 -24 -24 -29 -4 -58 17 -24 53 -29 72 -10 19 19 15
66 -7 78 -28 14 -38 13 -61 -10z"/>
<path d="M4400 3280 l0 -590 -63 0 c-262 0 -477 -203 -502 -475 -7 -84 10
-121 70 -149 51 -24 99 -16 142 26 27 26 33 40 33 73 0 152 117 275 263 275
l57 0 0 -195 0 -195 563 -2 562 -3 0 -75 0 -75 -127 -3 -128 -3 0 -94 0 -95
495 0 495 0 0 95 0 95 -100 0 -100 0 0 80 0 80 565 0 566 0 -1 273 c-1 149 -1
325 0 390 l0 117 1026 0 1027 0 34 37 c33 35 35 40 31 92 -4 46 -10 59 -37 83
l-31 28 -1025 0 -1025 0 0 400 0 400 -1395 0 -1395 0 0 -590z m2550 -320 l0
-680 -1154 0 c-1043 0 -1154 2 -1160 16 -8 21 -8 1329 1 1337 3 4 525 7 1160
7 l1153 0 0 -680z"/>
<path d="M5530 2943 c-41 -15 -54 -78 -22 -106 16 -15 54 -17 323 -17 259 0
308 2 327 16 25 18 29 60 8 90 -14 18 -30 19 -318 21 -167 1 -310 -1 -318 -4z"/>
<path d="M5145 2706 c-21 -15 -25 -67 -5 -90 11 -14 47 -16 245 -16 212 0 233
2 248 18 21 23 22 51 1 80 -15 22 -19 22 -243 22 -176 0 -231 -3 -246 -14z"/>
<path d="M5727 2702 c-21 -23 -22 -66 -1 -86 13 -14 50 -16 244 -16 251 0 260
2 260 59 0 58 -14 61 -262 61 -205 0 -226 -2 -241 -18z"/>
<path d="M3874 3427 c-26 -23 -37 -43 -41 -73 -11 -83 44 -144 131 -144 36 0
52 6 80 31 60 52 61 126 1 186 -29 29 -39 33 -84 33 -44 0 -56 -5 -87 -33z"/>
<path d="M10506 1922 c-122 -14 -144 -190 -30 -238 100 -42 212 61 171 158
-27 62 -72 88 -141 80z"/>
<path d="M8282 1904 c-38 -27 -52 -67 -52 -154 l0 -80 125 0 125 0 0 76 c0 88
-19 138 -61 159 -37 20 -109 19 -137 -1z"/>
<path d="M8305 1146 c-45 -20 -67 -50 -72 -99 -10 -87 48 -144 136 -134 81 9
130 93 98 170 -26 62 -101 91 -162 63z"/>
<path d="M3556 770 c-67 -9 -106 -53 -106 -121 0 -118 142 -172 219 -83 17 19
32 42 32 52 9 104 -49 165 -145 152z"/>
<path d="M8669 755 c-28 -15 -59 -70 -59 -104 0 -36 26 -86 53 -104 33 -22
115 -22 145 -1 69 48 68 162 -2 208 -31 20 -102 20 -137 1z"/>
</g>
</svg>
